<mxfile host="app.diagrams.net" modified="2021-07-11T06:03:03.331Z" agent="5.0 (Windows NT 10.0; Win64; x64) AppleWebKit/537.36 (KHTML, like Gecko) Chrome/91.0.4472.124 Safari/537.36" etag="iqFN2Mgn8zUWDaem4Qej" version="14.8.5" type="github">
  <diagram name="Page-1" id="e3a06f82-3646-2815-327d-82caf3d4e204">
    <mxGraphModel dx="1422" dy="738" grid="1" gridSize="10" guides="1" tooltips="1" connect="1" arrows="1" fold="1" page="1" pageScale="1.5" pageWidth="1169" pageHeight="826" background="none" math="0" shadow="0">
      <root>
        <mxCell id="0" style=";html=1;" />
        <mxCell id="1" style=";html=1;" parent="0" />
        <mxCell id="WePivm-psWIMAxNcnYN1-1" value="" style="shape=image;verticalLabelPosition=bottom;labelBackgroundColor=#ffffff;verticalAlign=top;aspect=fixed;imageAspect=0;image=data:image/png,iVBORw0KGgoAAAANSUhEUgAAADIAAAAyCAYAAAAeP4ixAAAABmJLR0QA/wD/AP+gvaeTAAAFb0lEQVRoge2Ze4hUdRTHP7PNrG3qLCu7bi+iUiop1mWtbEFri8KwIKlVJEqiF5YhUUgUlNhTMZMoIzEKyqSQEiuj2loqKrHsZa2PMt0yzWfl9tLSuf1xzo8zO3PvzNyZOzNL9IXLvff3OPf8fuf5OzdGdTEU+AoYDuwBftK7e96tz7v0cn2pajCbC0OBLYAX4joM7EQ24DFHKFZJrnNgCNCMSKZJ70u07zl9P1r7moCE9u3VeQNOQulwEvBDIzAKWdSAR66FZKGmjIxUFP8vZKDhP7OQeLUZUBwLjAFOBY7I6KsH9lecoxBoAxYAveQOgH8DXcAV5NCgagTEc4HZwAVpbfuBz4B1wK/a1gi0AmcCg7StB7gZeL8inAZgMLAIicIe0IekGOPJbav1wAwslUkB9+eZUzaMBzZjqnKfMhgGdcAc4JDSWUoFF1MHPIIkeh6S6LWVSHMCooqe0i47xgIbsIz1UUzXS0UHcEBpXxIRzSwMAh7CVGAjcE4ZvnOn0t8M1EZNfAyiPk4KCxH1KgcSwFb91mVREp2DGLIHfAecFxXxHJit33shCmKnA2sx17gYOflVAh363Z5SiMSBu4CDSuwH4KKSWQuHy/XbvxVLYBSwBksjniF8XCgVt2IO5emwk2PAjcAfSmAnMClK7gpAHHHlTpXnEjLVGgl8gElhGTAsWh7zogl4L42HrjCTY8AtmBR2A50RM1gIRmOZ8j96f6rQyScC3dgOvIyUZiqNTuB35aEbSTY94J58E50t9NH/bPAzEqm7lFgn5TXyGHAvljE/gcQsp17jck1uBN6g8Mrfn0gR7YyIFzEE0QCXMU/X9jbM3Qdmv8cBn+vAA5hdeMCnwDWIarXo87K0MYcRnY3CAZyEHLI8pNbboe11afzdHjS5GUktPOBt4EF9PgTcQfZZ2qEe0VWnhtuA9hIWcb4y79L+k9MW8aq2fxzETw3wrg5agRwxDyK7PK1ABkZgQfIv5NwQFjOwfG0lluocA3yIqdSIIALX6aAtQBJ4S98fD8lIAjHIsIupRXI0F+QewPR/HLBD+7ZiEspCDDuGXolIw3mopM/4TuAd5H9FL/AaUuFw0TWGbICH2E9LnkUMR4oJznFMTeubiUmomzyu/2wduAPRu4X6Ps9nrNttv2sVUmBwi1mq7d/ivyEgm+aC3I9IxQTgKOB5TELzKaAG54z6SUTEG/V9bMa4q7R9FzAZSRdOQTJg57lWYZIZDHyN+f9MTMaC3GrEDkBSoS+xSkvBWUSXTloAfIG50szz9Wrtm+JDoxVJpT1l0KEFUY2UjoHsIPcscKT2XQr8ou0bkCy7YGwjW022+4xzu94QQGeW9r+Z0T6f/l5oBebWZ+mYGuSE6Rb3EsHqGAjHYAp4RZ83+YxzJZgTAuiMxJxEOhoQFUkh9uIh1cSJ2j8MeJ3+MauoCmgPYugTkeDmdDMTzrPcFECnAfNUmZiHSfsbTGVasQriHuDCYhbgkMB+LoLsqEe2v75W2/f59IEcsDzgE5++Kdq3DkthpiHu1s0JknTReFGJ35bRHsei615kYQ2IGkxA7MoDbvCh6exnMeIZF2ESWoIZe6SYiqlApu9uxLyX37Uc/4zUbc5c4CMsKb0+evYNtZjeTvfpjyOl/bWIcaaA9Uie5LeIJKZCrljwPXBW1Iz74WqszJLPl+er56YbususK/Z/PIb5+03A8UXSacdyJVfxCDoOlA1JrJreS/gT4GjMA/YhxbSqoRk5GTrjvBtJ6HKhBrEtF0DXA6eVkceCkUTyIafj+4CHkfKoSyPiiMRmIgE23YtVqg5cMC7GpJPv2k7/c8WARDtSslyDFbDd6XI5EsUTgbPLhH8BdlfW0vzZqmAAAAAASUVORK5CYII=;" parent="1" vertex="1">
          <mxGeometry x="270" y="350" width="80" height="80" as="geometry" />
        </mxCell>
        <mxCell id="WePivm-psWIMAxNcnYN1-2" value="" style="shape=image;verticalLabelPosition=bottom;labelBackgroundColor=#ffffff;verticalAlign=top;aspect=fixed;imageAspect=0;image=data:image/png,iVBORw0KGgoAAAANSUhEUgAAAFAAAABQCAYAAACOEfKtAAAABmJLR0QA/wD/AP+gvaeTAAAGPklEQVR4nO3beaxdVRXA4e/RvpYOWNAnhaoINghPK1SlFcWROIeCCQ4RrUGExMYU4wAOxIASsUZAtBoxDhGnIOCQ1BjFRtFiwAGNYoI1iEGwCioOaEkHev1jnZN93/OcO/DuOfeYnl9ykzOsffe66+2911p7r0dLS0tLS0tLS0tLS0tLy/7FxLgVqJmlWI+n415cidvHqtH/CQ/HhfgrOl2fnVg7Rr0azwpcivslo23DG/DV7P5X9r+Z2Jcj8RExwnLD3Yh1XTKTuDN7t272F+yvrMLnsUcY5kFswZoS+bdkcjfXol2DeQquwT5hkN3CkMf2abdYOJMOnlOlgk3lhfi+NE3/jSvwmBL5pdiK13U9e0/W9jvVqdksDsDp+JlkuPtwMaZK5A/Jrg/H3zPZnEPwr+x7nlqNys1gEmfiNslwf8L5OKhHu2uwAwuz+6UFMh/Kvu/aUSnbJBZjo+QxO7gDG3BggfwivFoy2FvFetiLw/GAcDrHzF3lZrAM78Y9kuF+jddifo926zPZs4fs78qs3WeH1rRhLMcl+IdkuJtxmvKA9yK8PrtegvPwiCH7XYm92KXcCTWax2KzmcHvVpzcp908/AU/GIEOX8r6vWIE31Ub0/iciN3y4PfreueoG3CXSNWIzKOXIxmU40Qs+R/FHr1RnCDy0QeF4faIxf4JJfKrJKfxRmzHoRXotSXT5+J+guPiebhemqYP4ONiFJWxOpO9pHLteIYUW45iVI+ECZyKmyTD/RObhNMo4gU4I7teLIxc19bTDULH82rqr5T5eA1ulQx3Ly7AwX3a/lxkCOPYanqR0HWH4lizchaKdep3kuH+gHPFaCpirdhyenx2/0TjTa1uEXqfVmenB4lhv0My3G9EjLagQH5J1/NXCE/83OrVHIhPCv3PraOzKbxXLLy54W7By0UyX8RCEb9d1fVsWYU6DsokzhI7Ox1xflIZU7i8q7OOCGhfXCK/Ai/JrhfgOjHVm0BRzv2JKjtcLq1x+/BNnNSnzdWZ7KOqVGxIinLuW6UIoDIuyzr7MY4vkZnCp/Ck7P54MeLKpnWdLMcHRDiVG+4mEW7V4vm3Zp2+tIfMSWLEvbMOhQbkSHzMzJz7ehHg10q+/bNp1vNrRTqUc5xmjLhp4bC6c+6vKT9wqpw1UkbRHRRv0ayd3TXCUHnOvVsYsiznnjMHiwB2JY4SZwZl4cV3M6UuqEqZOXCymTn3TjF1e+Xcc2a9dKZa9NkjYr0/Cw+cl0rcozzDqJOinDuPEo6uQ4HfS1vnt4uzh/vM9FRln411KFhCr5z7h9n9q+pQJO+sLH2ZFFP6MDxOrCMbsjZ3Zu/r5ED9c+5N2fN31KHQqV1KFOWuRUyIEdsRx451UJRzb1ecc1+VvT+rDsUmRLXSsB3mJ2G3qTZkmcL7zMy580PxoqPL5fibWAMr87qzOUP6i84bsM2ktH6eXoFOj8aHzcy5bxD7dkdJQfFnhLN4GJ4vrYlfqUCnUuYJB9LBK4do96aszU9HqMvR+LQ4asy96Rax7d7NOnE0UOTcthnD1vw5Wee/MHheuEiENx2xHT8XVotRkwe/e/FlkdWUsVLs4W2XjHe23ofwlbEQd+uf687mXVmb7z3Efp8pRlheprZLrG3DllvkBhwrefHhjUO0WSZNpRMHbDMh/kjbpB9+v9jtWdGjXS8aYcAlUvHhswdsc6ak/Df6yB4g1q6fdLXJT+qGLcuYTSMMSCo+/PYAskdI9Sx7xTRcVSC3QBR5/1b6oX/E2xSXnj0UGmPAZZJRTughNyGMnI+8zdn1F7pkluDNIkjPf+Ad2bNFI9a7MQaEDwplrushs1HaVHikGI27xEi8EO8XB0j5D/ulqOEbNM4clkYZ8DCp+HC64P0xohing5d1PT/f/8ZkP8Ipqt8yb5QBibKKjqii6ma+qN0rekdkA5eKmpZnVangLBpnwCPETu5uMzckcydzt1TI3QQaZ0DSrsbm7H61WOf2iZy0STTSgNNiHdwpRmSeqH90nEqVkAfzTZoVSP+gd5e0Y9OErfzZ5GchX9SwStMni9CkIzzv08arTinTUmQwqs/IWIu3K84ymsSx+JbRGbKlpaWlpaWlpaWlpaWlpaWlpaWlpaVljPwXuVf8OCzGx5wAAAAASUVORK5CYII=;" parent="1" vertex="1">
          <mxGeometry x="294" y="150" width="94" height="94" as="geometry" />
        </mxCell>
        <mxCell id="WePivm-psWIMAxNcnYN1-4" value="摄像机" style="text;html=1;strokeColor=none;fillColor=none;align=center;verticalAlign=middle;whiteSpace=wrap;rounded=0;fontSize=18;" parent="1" vertex="1">
          <mxGeometry x="260" y="244" width="90" height="20" as="geometry" />
        </mxCell>
        <mxCell id="WePivm-psWIMAxNcnYN1-5" value="IP摄像机" style="text;html=1;strokeColor=none;fillColor=none;align=center;verticalAlign=middle;whiteSpace=wrap;rounded=0;fontSize=18;" parent="1" vertex="1">
          <mxGeometry x="260" y="440" width="90" height="20" as="geometry" />
        </mxCell>
        <mxCell id="WePivm-psWIMAxNcnYN1-6" value="高清摄像机" style="text;html=1;strokeColor=none;fillColor=none;align=center;verticalAlign=middle;whiteSpace=wrap;rounded=0;fontSize=18;" parent="1" vertex="1">
          <mxGeometry x="235" y="620" width="140" height="20" as="geometry" />
        </mxCell>
        <mxCell id="WePivm-psWIMAxNcnYN1-7" value="" style="shape=image;verticalLabelPosition=bottom;labelBackgroundColor=#ffffff;verticalAlign=top;aspect=fixed;imageAspect=0;image=data:image/png,iVBORw0KGgoAAAANSUhEUgAAAEAAAABACAYAAACqaXHeAAAABmJLR0QA/wD/AP+gvaeTAAAERUlEQVR4nO2bW2gVRxjHf8d4NyqtF5CcRFvFtkL1QcUHUVBEG1FBqWgtPtUWpBT0tQiKoq8KCl7Ik0+CIOIFBWupRrxhrLRGEFO1apWCtqlV4i3Rh9nI5ts5Z2d2d+YcdH+w4Ga++f7ffGdndmZnhJycnJycnJz3lYInnXpgFjABGANMBT72pN3NPeA74JgvweHAWuA34HWVXHectjhgKLAJ+N9z40wvp8xHZbnSjfSegN7A9jKibcBmoBEoAgOCq4hK2hbgjzL1mwKNJDhPwGDgpEboNXAemGvopwDMC+rofB0PtGxxmoChwFmNyL/AKpK9ZQrAt0C7xu95YJClP2cJ6AOc0AhcBz7JwP9Y4KrG/1HsuoOzBOzROD8NDMlQYwjQrNHZZeHDSQJWaBw3Y/94mlALnNHofWVYP/MEjAb+E05vAMOycF6C4YFGWLMdaDCoeytU52YWwRwUgTwHJmXhOIZJgVZY+4BBvUbgbnB9kTaIRqKP1Pq0Ti3YoNFP3ShTCsBFIX4F9TbwRW+gRcTQgqdF3WKi2Z/tQ1gwRxPHIh/CvwjRiz5ES3BJxHLSteBnQJcQXepatAzLRCxdwKcuBTcJwb+AGpeCMdQAD0RMG10KXhNiO12KGSJnor+7EvqI6KDT6ErMggVE46p3IfS1EHkK9HMhZMkAoINk0+O39DKwmSbuW1EzskrTgeqaYWSssZgkQC5tW21FHHJV3I+3dWCSAPn5Wma9ksgEjLN1YDKF/Af4wNZxhXiEWjkaY5KAF/id76fhBZYDtEkX+DtZLBXBSazd62n5zq226w4JlsZJlpHys5Kv/UUn+iZd4J0mT0ClA6g0vhPQH7Vj9CfwBDgHfA/09RxHKl7Rc/Q13aVZjZqo6EbwFmCUoZ/Mv/Pb8lgEMMKgzg7iX2OXiJ9wDRR1ntmHn542EcTnMfZLiW9897U6xle9sE898UkyBrSJ+8kx9j+I+yOocwHF4N9hVsb4kouduzH2TthMz1+hKcb+ibCvC5UVRdnjGF8/Cvu9lrFHSPIEnBb3iyk/issN03Izt7gDEAvEfXOMvRP6og5AhH+J5WXsZT8/jHoKuruA6ag+Qdh1YbY56oRtIpjrlH4d2i5qSrFP2P2cthFpKBLdqV1TwjaLBEwnujHzZQbtSEUTPQPqACZq7NIm4EPgtrD5lSqYxtcBD4muyWW/lA1sRh2ivA18oykPU4sadMPlncCMzFuTEN2O8Q167tPF/cKlykeiPx+0LdMWZMBuokG2ozYw0ZRJdOVzUfuPsuwUVfh9sg/q6JquP/+k+ZtElh8q4esyajyoSvoD+zEb5OpQn9lrUUfnTeqcwu0hrEzoBawDXmI/8pe6OoGtVOFjX44pwAXSN/4yVTTa21IAFqJma52YN7oLddxlCZ6+NvsQaUB9r5+JOmrTgNrarkGtKe6jDjecRf13lnseYsrJyckB4A0Bv7u68wvfQQAAAABJRU5ErkJggg==;" parent="1" vertex="1">
          <mxGeometry x="280" y="535" width="74" height="74" as="geometry" />
        </mxCell>
        <mxCell id="WePivm-psWIMAxNcnYN1-8" value="" style="verticalLabelPosition=bottom;aspect=fixed;html=1;verticalAlign=top;strokeColor=none;align=center;outlineConnect=0;shape=mxgraph.citrix.netscaler_vpx;fontSize=18;" parent="1" vertex="1">
          <mxGeometry x="420" y="241" width="107.78" height="40" as="geometry" />
        </mxCell>
        <mxCell id="WePivm-psWIMAxNcnYN1-9" value="" style="shape=image;verticalLabelPosition=bottom;labelBackgroundColor=#ffffff;verticalAlign=top;aspect=fixed;imageAspect=0;image=data:image/png,iVBORw0KGgoAAAANSUhEUgAAAFAAAABQCAYAAACOEfKtAAAABmJLR0QA/wD/AP+gvaeTAAAGPklEQVR4nO3beaxdVRXA4e/RvpYOWNAnhaoINghPK1SlFcWROIeCCQ4RrUGExMYU4wAOxIASsUZAtBoxDhGnIOCQ1BjFRtFiwAGNYoI1iEGwCioOaEkHev1jnZN93/OcO/DuOfeYnl9ykzOsffe66+2911p7r0dLS0tLS0tLS0tLS0tLy/7FxLgVqJmlWI+n415cidvHqtH/CQ/HhfgrOl2fnVg7Rr0azwpcivslo23DG/DV7P5X9r+Z2Jcj8RExwnLD3Yh1XTKTuDN7t272F+yvrMLnsUcY5kFswZoS+bdkcjfXol2DeQquwT5hkN3CkMf2abdYOJMOnlOlgk3lhfi+NE3/jSvwmBL5pdiK13U9e0/W9jvVqdksDsDp+JlkuPtwMaZK5A/Jrg/H3zPZnEPwr+x7nlqNys1gEmfiNslwf8L5OKhHu2uwAwuz+6UFMh/Kvu/aUSnbJBZjo+QxO7gDG3BggfwivFoy2FvFetiLw/GAcDrHzF3lZrAM78Y9kuF+jddifo926zPZs4fs78qs3WeH1rRhLMcl+IdkuJtxmvKA9yK8PrtegvPwiCH7XYm92KXcCTWax2KzmcHvVpzcp908/AU/GIEOX8r6vWIE31Ub0/iciN3y4PfreueoG3CXSNWIzKOXIxmU40Qs+R/FHr1RnCDy0QeF4faIxf4JJfKrJKfxRmzHoRXotSXT5+J+guPiebhemqYP4ONiFJWxOpO9pHLteIYUW45iVI+ECZyKmyTD/RObhNMo4gU4I7teLIxc19bTDULH82rqr5T5eA1ulQx3Ly7AwX3a/lxkCOPYanqR0HWH4lizchaKdep3kuH+gHPFaCpirdhyenx2/0TjTa1uEXqfVmenB4lhv0My3G9EjLagQH5J1/NXCE/83OrVHIhPCv3PraOzKbxXLLy54W7By0UyX8RCEb9d1fVsWYU6DsokzhI7Ox1xflIZU7i8q7OOCGhfXCK/Ai/JrhfgOjHVm0BRzv2JKjtcLq1x+/BNnNSnzdWZ7KOqVGxIinLuW6UIoDIuyzr7MY4vkZnCp/Ck7P54MeLKpnWdLMcHRDiVG+4mEW7V4vm3Zp2+tIfMSWLEvbMOhQbkSHzMzJz7ehHg10q+/bNp1vNrRTqUc5xmjLhp4bC6c+6vKT9wqpw1UkbRHRRv0ayd3TXCUHnOvVsYsiznnjMHiwB2JY4SZwZl4cV3M6UuqEqZOXCymTn3TjF1e+Xcc2a9dKZa9NkjYr0/Cw+cl0rcozzDqJOinDuPEo6uQ4HfS1vnt4uzh/vM9FRln411KFhCr5z7h9n9q+pQJO+sLH2ZFFP6MDxOrCMbsjZ3Zu/r5ED9c+5N2fN31KHQqV1KFOWuRUyIEdsRx451UJRzb1ecc1+VvT+rDsUmRLXSsB3mJ2G3qTZkmcL7zMy580PxoqPL5fibWAMr87qzOUP6i84bsM2ktH6eXoFOj8aHzcy5bxD7dkdJQfFnhLN4GJ4vrYlfqUCnUuYJB9LBK4do96aszU9HqMvR+LQ4asy96Rax7d7NOnE0UOTcthnD1vw5Wee/MHheuEiENx2xHT8XVotRkwe/e/FlkdWUsVLs4W2XjHe23ofwlbEQd+uf687mXVmb7z3Efp8pRlheprZLrG3DllvkBhwrefHhjUO0WSZNpRMHbDMh/kjbpB9+v9jtWdGjXS8aYcAlUvHhswdsc6ak/Df6yB4g1q6fdLXJT+qGLcuYTSMMSCo+/PYAskdI9Sx7xTRcVSC3QBR5/1b6oX/E2xSXnj0UGmPAZZJRTughNyGMnI+8zdn1F7pkluDNIkjPf+Ad2bNFI9a7MQaEDwplrushs1HaVHikGI27xEi8EO8XB0j5D/ulqOEbNM4clkYZ8DCp+HC64P0xohing5d1PT/f/8ZkP8Ipqt8yb5QBibKKjqii6ma+qN0rekdkA5eKmpZnVangLBpnwCPETu5uMzckcydzt1TI3QQaZ0DSrsbm7H61WOf2iZy0STTSgNNiHdwpRmSeqH90nEqVkAfzTZoVSP+gd5e0Y9OErfzZ5GchX9SwStMni9CkIzzv08arTinTUmQwqs/IWIu3K84ymsSx+JbRGbKlpaWlpaWlpaWlpaWlpaWlpaWlpaVljPwXuVf8OCzGx5wAAAAASUVORK5CYII=;" parent="1" vertex="1">
          <mxGeometry x="240" y="100" width="90" height="90" as="geometry" />
        </mxCell>
        <mxCell id="WePivm-psWIMAxNcnYN1-10" value="" style="shape=image;verticalLabelPosition=bottom;labelBackgroundColor=#ffffff;verticalAlign=top;aspect=fixed;imageAspect=0;image=data:image/png,iVBORw0KGgoAAAANSUhEUgAAADIAAAAyCAYAAAAeP4ixAAAABmJLR0QA/wD/AP+gvaeTAAAFb0lEQVRoge2Ze4hUdRTHP7PNrG3qLCu7bi+iUiop1mWtbEFri8KwIKlVJEqiF5YhUUgUlNhTMZMoIzEKyqSQEiuj2loqKrHsZa2PMt0yzWfl9tLSuf1xzo8zO3PvzNyZOzNL9IXLvff3OPf8fuf5OzdGdTEU+AoYDuwBftK7e96tz7v0cn2pajCbC0OBLYAX4joM7EQ24DFHKFZJrnNgCNCMSKZJ70u07zl9P1r7moCE9u3VeQNOQulwEvBDIzAKWdSAR66FZKGmjIxUFP8vZKDhP7OQeLUZUBwLjAFOBY7I6KsH9lecoxBoAxYAveQOgH8DXcAV5NCgagTEc4HZwAVpbfuBz4B1wK/a1gi0AmcCg7StB7gZeL8inAZgMLAIicIe0IekGOPJbav1wAwslUkB9+eZUzaMBzZjqnKfMhgGdcAc4JDSWUoFF1MHPIIkeh6S6LWVSHMCooqe0i47xgIbsIz1UUzXS0UHcEBpXxIRzSwMAh7CVGAjcE4ZvnOn0t8M1EZNfAyiPk4KCxH1KgcSwFb91mVREp2DGLIHfAecFxXxHJit33shCmKnA2sx17gYOflVAh363Z5SiMSBu4CDSuwH4KKSWQuHy/XbvxVLYBSwBksjniF8XCgVt2IO5emwk2PAjcAfSmAnMClK7gpAHHHlTpXnEjLVGgl8gElhGTAsWh7zogl4L42HrjCTY8AtmBR2A50RM1gIRmOZ8j96f6rQyScC3dgOvIyUZiqNTuB35aEbSTY94J58E50t9NH/bPAzEqm7lFgn5TXyGHAvljE/gcQsp17jck1uBN6g8Mrfn0gR7YyIFzEE0QCXMU/X9jbM3Qdmv8cBn+vAA5hdeMCnwDWIarXo87K0MYcRnY3CAZyEHLI8pNbboe11afzdHjS5GUktPOBt4EF9PgTcQfZZ2qEe0VWnhtuA9hIWcb4y79L+k9MW8aq2fxzETw3wrg5agRwxDyK7PK1ABkZgQfIv5NwQFjOwfG0lluocA3yIqdSIIALX6aAtQBJ4S98fD8lIAjHIsIupRXI0F+QewPR/HLBD+7ZiEspCDDuGXolIw3mopM/4TuAd5H9FL/AaUuFw0TWGbICH2E9LnkUMR4oJznFMTeubiUmomzyu/2wduAPRu4X6Ps9nrNttv2sVUmBwi1mq7d/ivyEgm+aC3I9IxQTgKOB5TELzKaAG54z6SUTEG/V9bMa4q7R9FzAZSRdOQTJg57lWYZIZDHyN+f9MTMaC3GrEDkBSoS+xSkvBWUSXTloAfIG50szz9Wrtm+JDoxVJpT1l0KEFUY2UjoHsIPcscKT2XQr8ou0bkCy7YGwjW022+4xzu94QQGeW9r+Z0T6f/l5oBebWZ+mYGuSE6Rb3EsHqGAjHYAp4RZ83+YxzJZgTAuiMxJxEOhoQFUkh9uIh1cSJ2j8MeJ3+MauoCmgPYugTkeDmdDMTzrPcFECnAfNUmZiHSfsbTGVasQriHuDCYhbgkMB+LoLsqEe2v75W2/f59IEcsDzgE5++Kdq3DkthpiHu1s0JknTReFGJ35bRHsei615kYQ2IGkxA7MoDbvCh6exnMeIZF2ESWoIZe6SYiqlApu9uxLyX37Uc/4zUbc5c4CMsKb0+evYNtZjeTvfpjyOl/bWIcaaA9Uie5LeIJKZCrljwPXBW1Iz74WqszJLPl+er56YbususK/Z/PIb5+03A8UXSacdyJVfxCDoOlA1JrJreS/gT4GjMA/YhxbSqoRk5GTrjvBtJ6HKhBrEtF0DXA6eVkceCkUTyIafj+4CHkfKoSyPiiMRmIgE23YtVqg5cMC7GpJPv2k7/c8WARDtSslyDFbDd6XI5EsUTgbPLhH8BdlfW0vzZqmAAAAAASUVORK5CYII=;" parent="1" vertex="1">
          <mxGeometry x="220" y="310" width="80" height="80" as="geometry" />
        </mxCell>
        <mxCell id="WePivm-psWIMAxNcnYN1-11" value="" style="shape=image;verticalLabelPosition=bottom;labelBackgroundColor=#ffffff;verticalAlign=top;aspect=fixed;imageAspect=0;image=data:image/png,iVBORw0KGgoAAAANSUhEUgAAAEAAAABACAYAAACqaXHeAAAABmJLR0QA/wD/AP+gvaeTAAAERUlEQVR4nO2bW2gVRxjHf8d4NyqtF5CcRFvFtkL1QcUHUVBEG1FBqWgtPtUWpBT0tQiKoq8KCl7Ik0+CIOIFBWupRrxhrLRGEFO1apWCtqlV4i3Rh9nI5ts5Z2d2d+YcdH+w4Ga++f7ffGdndmZnhJycnJycnJz3lYInnXpgFjABGANMBT72pN3NPeA74JgvweHAWuA34HWVXHectjhgKLAJ+N9z40wvp8xHZbnSjfSegN7A9jKibcBmoBEoAgOCq4hK2hbgjzL1mwKNJDhPwGDgpEboNXAemGvopwDMC+rofB0PtGxxmoChwFmNyL/AKpK9ZQrAt0C7xu95YJClP2cJ6AOc0AhcBz7JwP9Y4KrG/1HsuoOzBOzROD8NDMlQYwjQrNHZZeHDSQJWaBw3Y/94mlALnNHofWVYP/MEjAb+E05vAMOycF6C4YFGWLMdaDCoeytU52YWwRwUgTwHJmXhOIZJgVZY+4BBvUbgbnB9kTaIRqKP1Pq0Ti3YoNFP3ShTCsBFIX4F9TbwRW+gRcTQgqdF3WKi2Z/tQ1gwRxPHIh/CvwjRiz5ES3BJxHLSteBnQJcQXepatAzLRCxdwKcuBTcJwb+AGpeCMdQAD0RMG10KXhNiO12KGSJnor+7EvqI6KDT6ErMggVE46p3IfS1EHkK9HMhZMkAoINk0+O39DKwmSbuW1EzskrTgeqaYWSssZgkQC5tW21FHHJV3I+3dWCSAPn5Wma9ksgEjLN1YDKF/Af4wNZxhXiEWjkaY5KAF/id76fhBZYDtEkX+DtZLBXBSazd62n5zq226w4JlsZJlpHys5Kv/UUn+iZd4J0mT0ClA6g0vhPQH7Vj9CfwBDgHfA/09RxHKl7Rc/Q13aVZjZqo6EbwFmCUoZ/Mv/Pb8lgEMMKgzg7iX2OXiJ9wDRR1ntmHn542EcTnMfZLiW9897U6xle9sE898UkyBrSJ+8kx9j+I+yOocwHF4N9hVsb4kouduzH2TthMz1+hKcb+ibCvC5UVRdnjGF8/Cvu9lrFHSPIEnBb3iyk/issN03Izt7gDEAvEfXOMvRP6og5AhH+J5WXsZT8/jHoKuruA6ag+Qdh1YbY56oRtIpjrlH4d2i5qSrFP2P2cthFpKBLdqV1TwjaLBEwnujHzZQbtSEUTPQPqACZq7NIm4EPgtrD5lSqYxtcBD4muyWW/lA1sRh2ivA18oykPU4sadMPlncCMzFuTEN2O8Q167tPF/cKlykeiPx+0LdMWZMBuokG2ozYw0ZRJdOVzUfuPsuwUVfh9sg/q6JquP/+k+ZtElh8q4esyajyoSvoD+zEb5OpQn9lrUUfnTeqcwu0hrEzoBawDXmI/8pe6OoGtVOFjX44pwAXSN/4yVTTa21IAFqJma52YN7oLddxlCZ6+NvsQaUB9r5+JOmrTgNrarkGtKe6jDjecRf13lnseYsrJyckB4A0Bv7u68wvfQQAAAABJRU5ErkJggg==;" parent="1" vertex="1">
          <mxGeometry x="220" y="510" width="74" height="74" as="geometry" />
        </mxCell>
        <mxCell id="WePivm-psWIMAxNcnYN1-12" value="LAN" style="ellipse;shape=cloud;whiteSpace=wrap;html=1;fontSize=18;" parent="1" vertex="1">
          <mxGeometry x="672" y="290" width="280" height="200" as="geometry" />
        </mxCell>
        <mxCell id="WePivm-psWIMAxNcnYN1-13" value="" style="endArrow=none;html=1;fontSize=18;strokeWidth=2;strokeColor=#EA6B66;" parent="1" edge="1">
          <mxGeometry width="50" height="50" relative="1" as="geometry">
            <mxPoint x="610" y="680" as="sourcePoint" />
            <mxPoint x="610" y="120" as="targetPoint" />
          </mxGeometry>
        </mxCell>
        <mxCell id="WePivm-psWIMAxNcnYN1-14" value="" style="endArrow=none;html=1;fontSize=18;strokeWidth=2;strokeColor=#0D0606;" parent="1" edge="1">
          <mxGeometry width="50" height="50" relative="1" as="geometry">
            <mxPoint x="430" y="240" as="sourcePoint" />
            <mxPoint x="390" y="220" as="targetPoint" />
          </mxGeometry>
        </mxCell>
        <mxCell id="WePivm-psWIMAxNcnYN1-15" value="" style="endArrow=none;html=1;fontSize=18;strokeWidth=2;strokeColor=#0D0606;exitX=0.079;exitY=0.357;exitDx=0;exitDy=0;exitPerimeter=0;" parent="1" source="WePivm-psWIMAxNcnYN1-12" target="WePivm-psWIMAxNcnYN1-8" edge="1">
          <mxGeometry width="50" height="50" relative="1" as="geometry">
            <mxPoint x="742" y="340" as="sourcePoint" />
            <mxPoint x="530" y="270" as="targetPoint" />
          </mxGeometry>
        </mxCell>
        <mxCell id="WePivm-psWIMAxNcnYN1-16" value="DVS" style="text;html=1;strokeColor=none;fillColor=none;align=center;verticalAlign=middle;whiteSpace=wrap;rounded=0;fontSize=18;" parent="1" vertex="1">
          <mxGeometry x="439" y="290" width="40" height="20" as="geometry" />
        </mxCell>
        <mxCell id="WePivm-psWIMAxNcnYN1-17" value="" style="endArrow=none;html=1;fontSize=18;strokeWidth=2;entryX=0.1;entryY=0.656;entryDx=0;entryDy=0;entryPerimeter=0;strokeColor=#0D0606;exitX=1.007;exitY=0.641;exitDx=0;exitDy=0;exitPerimeter=0;" parent="1" source="WePivm-psWIMAxNcnYN1-1" target="WePivm-psWIMAxNcnYN1-12" edge="1">
          <mxGeometry width="50" height="50" relative="1" as="geometry">
            <mxPoint x="370" y="400" as="sourcePoint" />
            <mxPoint x="380" y="380" as="targetPoint" />
          </mxGeometry>
        </mxCell>
        <mxCell id="WePivm-psWIMAxNcnYN1-18" value="" style="endArrow=none;html=1;fontSize=18;strokeWidth=2;strokeColor=#0D0606;entryX=0.386;entryY=0.904;entryDx=0;entryDy=0;entryPerimeter=0;" parent="1" target="WePivm-psWIMAxNcnYN1-12" edge="1">
          <mxGeometry width="50" height="50" relative="1" as="geometry">
            <mxPoint x="360" y="570" as="sourcePoint" />
            <mxPoint x="500" y="530" as="targetPoint" />
          </mxGeometry>
        </mxCell>
        <mxCell id="WePivm-psWIMAxNcnYN1-19" value="" style="verticalLabelPosition=bottom;aspect=fixed;html=1;verticalAlign=top;strokeColor=none;align=center;outlineConnect=0;shape=mxgraph.citrix.xenserver;fontSize=18;" parent="1" vertex="1">
          <mxGeometry x="670" y="130" width="76.5" height="90" as="geometry" />
        </mxCell>
        <mxCell id="WePivm-psWIMAxNcnYN1-20" value="" style="verticalLabelPosition=bottom;aspect=fixed;html=1;verticalAlign=top;strokeColor=none;align=center;outlineConnect=0;shape=mxgraph.citrix.command_center;fontSize=18;" parent="1" vertex="1">
          <mxGeometry x="944" y="183" width="75.5" height="96" as="geometry" />
        </mxCell>
        <mxCell id="WePivm-psWIMAxNcnYN1-21" value="" style="endArrow=none;html=1;fontSize=18;strokeColor=#0D0606;strokeWidth=2;exitX=0.4;exitY=0.1;exitDx=0;exitDy=0;exitPerimeter=0;" parent="1" source="WePivm-psWIMAxNcnYN1-12" target="WePivm-psWIMAxNcnYN1-19" edge="1">
          <mxGeometry width="50" height="50" relative="1" as="geometry">
            <mxPoint x="810" y="270" as="sourcePoint" />
            <mxPoint x="860" y="220" as="targetPoint" />
          </mxGeometry>
        </mxCell>
        <mxCell id="WePivm-psWIMAxNcnYN1-22" value="" style="verticalLabelPosition=bottom;aspect=fixed;html=1;verticalAlign=top;strokeColor=none;align=center;outlineConnect=0;shape=mxgraph.citrix.xenserver;fontSize=18;" parent="1" vertex="1">
          <mxGeometry x="778.5" y="580" width="76.5" height="90" as="geometry" />
        </mxCell>
        <mxCell id="WePivm-psWIMAxNcnYN1-23" value="" style="endArrow=none;html=1;fontSize=18;strokeColor=#0D0606;strokeWidth=2;entryX=0.579;entryY=0.951;entryDx=0;entryDy=0;entryPerimeter=0;" parent="1" source="WePivm-psWIMAxNcnYN1-22" target="WePivm-psWIMAxNcnYN1-12" edge="1">
          <mxGeometry width="50" height="50" relative="1" as="geometry">
            <mxPoint x="840" y="580" as="sourcePoint" />
            <mxPoint x="890" y="530" as="targetPoint" />
          </mxGeometry>
        </mxCell>
        <mxCell id="WePivm-psWIMAxNcnYN1-24" value="NVR" style="text;html=1;strokeColor=none;fillColor=none;align=center;verticalAlign=middle;whiteSpace=wrap;rounded=0;fontSize=18;" parent="1" vertex="1">
          <mxGeometry x="680" y="221" width="40" height="20" as="geometry" />
        </mxCell>
        <mxCell id="WePivm-psWIMAxNcnYN1-25" value="NVR" style="text;html=1;strokeColor=none;fillColor=none;align=center;verticalAlign=middle;whiteSpace=wrap;rounded=0;fontSize=18;" parent="1" vertex="1">
          <mxGeometry x="740" y="660" width="40" height="20" as="geometry" />
        </mxCell>
        <mxCell id="WePivm-psWIMAxNcnYN1-26" value="" style="endArrow=none;dashed=1;html=1;fontSize=18;strokeColor=#0D0606;strokeWidth=2;" parent="1" edge="1">
          <mxGeometry width="50" height="50" relative="1" as="geometry">
            <mxPoint x="855" y="630" as="sourcePoint" />
            <mxPoint x="920" y="630" as="targetPoint" />
          </mxGeometry>
        </mxCell>
        <mxCell id="WePivm-psWIMAxNcnYN1-28" value="" style="shape=cylinder3;whiteSpace=wrap;html=1;boundedLbl=1;backgroundOutline=1;size=15;fontSize=18;" parent="1" vertex="1">
          <mxGeometry x="930" y="600" width="62" height="55" as="geometry" />
        </mxCell>
        <mxCell id="WePivm-psWIMAxNcnYN1-29" value="数据阵列" style="text;html=1;strokeColor=none;fillColor=none;align=center;verticalAlign=middle;whiteSpace=wrap;rounded=0;fontSize=18;" parent="1" vertex="1">
          <mxGeometry x="918" y="662.5" width="86" height="20" as="geometry" />
        </mxCell>
        <mxCell id="WePivm-psWIMAxNcnYN1-31" value="" style="endArrow=none;dashed=1;html=1;fontSize=18;strokeColor=#0D0606;strokeWidth=2;" parent="1" edge="1">
          <mxGeometry width="50" height="50" relative="1" as="geometry">
            <mxPoint x="739.9999999999995" y="169.99999999999977" as="sourcePoint" />
            <mxPoint x="804.9999999999995" y="169.99999999999977" as="targetPoint" />
          </mxGeometry>
        </mxCell>
        <mxCell id="WePivm-psWIMAxNcnYN1-32" value="" style="shape=cylinder3;whiteSpace=wrap;html=1;boundedLbl=1;backgroundOutline=1;size=15;fontSize=18;" parent="1" vertex="1">
          <mxGeometry x="815" y="140" width="62" height="55" as="geometry" />
        </mxCell>
        <mxCell id="WePivm-psWIMAxNcnYN1-33" value="数据阵列" style="text;html=1;strokeColor=none;fillColor=none;align=center;verticalAlign=middle;whiteSpace=wrap;rounded=0;fontSize=18;" parent="1" vertex="1">
          <mxGeometry x="803" y="198.5" width="86" height="20" as="geometry" />
        </mxCell>
        <mxCell id="WePivm-psWIMAxNcnYN1-35" value="" style="endArrow=none;html=1;fontSize=18;strokeColor=#0D0606;strokeWidth=2;exitX=0.88;exitY=0.25;exitDx=0;exitDy=0;exitPerimeter=0;" parent="1" source="WePivm-psWIMAxNcnYN1-12" target="WePivm-psWIMAxNcnYN1-20" edge="1">
          <mxGeometry width="50" height="50" relative="1" as="geometry">
            <mxPoint x="930" y="400" as="sourcePoint" />
            <mxPoint x="970" y="348" as="targetPoint" />
          </mxGeometry>
        </mxCell>
        <mxCell id="WePivm-psWIMAxNcnYN1-36" value="CMS" style="text;html=1;strokeColor=none;fillColor=none;align=center;verticalAlign=middle;whiteSpace=wrap;rounded=0;fontSize=18;" parent="1" vertex="1">
          <mxGeometry x="959.5" y="281" width="40" height="20" as="geometry" />
        </mxCell>
        <mxCell id="WePivm-psWIMAxNcnYN1-37" value="" style="endArrow=none;html=1;fontSize=18;strokeWidth=2;strokeColor=#EA6B66;" parent="1" edge="1">
          <mxGeometry width="50" height="50" relative="1" as="geometry">
            <mxPoint x="1069.9999999999995" y="679.9999999999998" as="sourcePoint" />
            <mxPoint x="1069.9999999999995" y="120" as="targetPoint" />
          </mxGeometry>
        </mxCell>
        <mxCell id="WePivm-psWIMAxNcnYN1-38" value="" style="verticalLabelPosition=top;aspect=fixed;html=1;verticalAlign=bottom;strokeColor=none;shape=mxgraph.citrix.thin_client;fillColor=#66B2FF;gradientColor=#0066CC;fontSize=14;labelPosition=center;align=center;" parent="1" vertex="1">
          <mxGeometry x="1309" y="173" width="71" height="71" as="geometry" />
        </mxCell>
        <mxCell id="WePivm-psWIMAxNcnYN1-39" value="" style="verticalLabelPosition=top;aspect=fixed;html=1;verticalAlign=bottom;strokeColor=none;shape=mxgraph.citrix.thin_client;fillColor=#66B2FF;gradientColor=#0066CC;fontSize=14;labelPosition=center;align=center;" parent="1" vertex="1">
          <mxGeometry x="1380" y="140" width="71" height="71" as="geometry" />
        </mxCell>
        <mxCell id="WePivm-psWIMAxNcnYN1-40" value="PC端" style="text;html=1;strokeColor=none;fillColor=none;align=center;verticalAlign=middle;whiteSpace=wrap;rounded=0;fontSize=18;" parent="1" vertex="1">
          <mxGeometry x="1380" y="249" width="60" height="20" as="geometry" />
        </mxCell>
        <mxCell id="WePivm-psWIMAxNcnYN1-41" value="" style="shape=table;html=1;whiteSpace=wrap;startSize=0;container=1;collapsible=0;childLayout=tableLayout;fontSize=18;fillColor=#CCE5FF;" parent="1" vertex="1">
          <mxGeometry x="1290" y="320" width="250" height="120" as="geometry" />
        </mxCell>
        <mxCell id="WePivm-psWIMAxNcnYN1-42" value="" style="shape=partialRectangle;html=1;whiteSpace=wrap;collapsible=0;dropTarget=0;pointerEvents=0;fillColor=none;top=0;left=0;bottom=0;right=0;points=[[0,0.5],[1,0.5]];portConstraint=eastwest;" parent="WePivm-psWIMAxNcnYN1-41" vertex="1">
          <mxGeometry width="250" height="40" as="geometry" />
        </mxCell>
        <mxCell id="WePivm-psWIMAxNcnYN1-43" value="" style="shape=partialRectangle;html=1;whiteSpace=wrap;connectable=0;fillColor=none;top=0;left=0;bottom=0;right=0;overflow=hidden;" parent="WePivm-psWIMAxNcnYN1-42" vertex="1">
          <mxGeometry width="84" height="40" as="geometry" />
        </mxCell>
        <mxCell id="WePivm-psWIMAxNcnYN1-44" value="" style="shape=partialRectangle;html=1;whiteSpace=wrap;connectable=0;fillColor=none;top=0;left=0;bottom=0;right=0;overflow=hidden;" parent="WePivm-psWIMAxNcnYN1-42" vertex="1">
          <mxGeometry x="84" width="82" height="40" as="geometry" />
        </mxCell>
        <mxCell id="WePivm-psWIMAxNcnYN1-45" value="" style="shape=partialRectangle;html=1;whiteSpace=wrap;connectable=0;fillColor=none;top=0;left=0;bottom=0;right=0;overflow=hidden;" parent="WePivm-psWIMAxNcnYN1-42" vertex="1">
          <mxGeometry x="166" width="84" height="40" as="geometry" />
        </mxCell>
        <mxCell id="WePivm-psWIMAxNcnYN1-46" value="" style="shape=partialRectangle;html=1;whiteSpace=wrap;collapsible=0;dropTarget=0;pointerEvents=0;fillColor=none;top=0;left=0;bottom=0;right=0;points=[[0,0.5],[1,0.5]];portConstraint=eastwest;" parent="WePivm-psWIMAxNcnYN1-41" vertex="1">
          <mxGeometry y="40" width="250" height="40" as="geometry" />
        </mxCell>
        <mxCell id="WePivm-psWIMAxNcnYN1-47" value="" style="shape=partialRectangle;html=1;whiteSpace=wrap;connectable=0;fillColor=none;top=0;left=0;bottom=0;right=0;overflow=hidden;" parent="WePivm-psWIMAxNcnYN1-46" vertex="1">
          <mxGeometry width="84" height="40" as="geometry" />
        </mxCell>
        <mxCell id="WePivm-psWIMAxNcnYN1-48" value="" style="shape=partialRectangle;html=1;whiteSpace=wrap;connectable=0;fillColor=none;top=0;left=0;bottom=0;right=0;overflow=hidden;" parent="WePivm-psWIMAxNcnYN1-46" vertex="1">
          <mxGeometry x="84" width="82" height="40" as="geometry" />
        </mxCell>
        <mxCell id="WePivm-psWIMAxNcnYN1-49" value="" style="shape=partialRectangle;html=1;whiteSpace=wrap;connectable=0;fillColor=none;top=0;left=0;bottom=0;right=0;overflow=hidden;" parent="WePivm-psWIMAxNcnYN1-46" vertex="1">
          <mxGeometry x="166" width="84" height="40" as="geometry" />
        </mxCell>
        <mxCell id="WePivm-psWIMAxNcnYN1-50" value="" style="shape=partialRectangle;html=1;whiteSpace=wrap;collapsible=0;dropTarget=0;pointerEvents=0;fillColor=none;top=0;left=0;bottom=0;right=0;points=[[0,0.5],[1,0.5]];portConstraint=eastwest;" parent="WePivm-psWIMAxNcnYN1-41" vertex="1">
          <mxGeometry y="80" width="250" height="40" as="geometry" />
        </mxCell>
        <mxCell id="WePivm-psWIMAxNcnYN1-51" value="" style="shape=partialRectangle;html=1;whiteSpace=wrap;connectable=0;fillColor=none;top=0;left=0;bottom=0;right=0;overflow=hidden;" parent="WePivm-psWIMAxNcnYN1-50" vertex="1">
          <mxGeometry width="84" height="40" as="geometry" />
        </mxCell>
        <mxCell id="WePivm-psWIMAxNcnYN1-52" value="" style="shape=partialRectangle;html=1;whiteSpace=wrap;connectable=0;fillColor=none;top=0;left=0;bottom=0;right=0;overflow=hidden;" parent="WePivm-psWIMAxNcnYN1-50" vertex="1">
          <mxGeometry x="84" width="82" height="40" as="geometry" />
        </mxCell>
        <mxCell id="WePivm-psWIMAxNcnYN1-53" value="" style="shape=partialRectangle;html=1;whiteSpace=wrap;connectable=0;fillColor=none;top=0;left=0;bottom=0;right=0;overflow=hidden;" parent="WePivm-psWIMAxNcnYN1-50" vertex="1">
          <mxGeometry x="166" width="84" height="40" as="geometry" />
        </mxCell>
        <mxCell id="WePivm-psWIMAxNcnYN1-54" value="大屏端" style="text;html=1;strokeColor=none;fillColor=none;align=center;verticalAlign=middle;whiteSpace=wrap;rounded=0;fontSize=18;" parent="1" vertex="1">
          <mxGeometry x="1380" y="460" width="60" height="20" as="geometry" />
        </mxCell>
        <mxCell id="WePivm-psWIMAxNcnYN1-56" value="" style="verticalLabelPosition=bottom;verticalAlign=top;html=1;shadow=0;dashed=0;strokeWidth=1;shape=mxgraph.android.phone2;strokeColor=#6c8ebf;fontSize=18;fillColor=#dae8fc;" parent="1" vertex="1">
          <mxGeometry x="1360" y="550" width="60" height="110" as="geometry" />
        </mxCell>
        <mxCell id="WePivm-psWIMAxNcnYN1-59" value="" style="verticalLabelPosition=bottom;verticalAlign=top;html=1;shadow=0;dashed=0;strokeWidth=1;shape=mxgraph.android.phone2;strokeColor=#6c8ebf;fontSize=18;fillColor=#dae8fc;" parent="1" vertex="1">
          <mxGeometry x="1430" y="572.5" width="60" height="110" as="geometry" />
        </mxCell>
        <mxCell id="WePivm-psWIMAxNcnYN1-60" value="" style="endArrow=none;html=1;fontSize=18;strokeColor=#0D0606;strokeWidth=2;startArrow=none;" parent="1" source="WePivm-psWIMAxNcnYN1-67" edge="1">
          <mxGeometry width="50" height="50" relative="1" as="geometry">
            <mxPoint x="1186" y="290" as="sourcePoint" />
            <mxPoint x="1300" y="220" as="targetPoint" />
          </mxGeometry>
        </mxCell>
        <mxCell id="WePivm-psWIMAxNcnYN1-61" value="" style="endArrow=none;html=1;fontSize=18;strokeColor=#0D0606;strokeWidth=2;entryX=-0.003;entryY=0.915;entryDx=0;entryDy=0;entryPerimeter=0;startArrow=none;" parent="1" target="WePivm-psWIMAxNcnYN1-46" edge="1">
          <mxGeometry width="50" height="50" relative="1" as="geometry">
            <mxPoint x="1210" y="405" as="sourcePoint" />
            <mxPoint x="1050" y="370" as="targetPoint" />
          </mxGeometry>
        </mxCell>
        <mxCell id="WePivm-psWIMAxNcnYN1-62" value="" style="verticalLabelPosition=bottom;aspect=fixed;html=1;verticalAlign=top;strokeColor=none;shape=mxgraph.citrix.switch;fillColor=#66B2FF;gradientColor=#0066CC;fontSize=14;" parent="1" vertex="1">
          <mxGeometry x="961.5" y="460" width="92" height="41.5" as="geometry" />
        </mxCell>
        <mxCell id="WePivm-psWIMAxNcnYN1-63" value="" style="endArrow=none;html=1;fontSize=18;strokeColor=#0D0606;strokeWidth=2;entryX=0.8;entryY=0.8;entryDx=0;entryDy=0;entryPerimeter=0;" parent="1" source="WePivm-psWIMAxNcnYN1-62" target="WePivm-psWIMAxNcnYN1-12" edge="1">
          <mxGeometry width="50" height="50" relative="1" as="geometry">
            <mxPoint x="900" y="500" as="sourcePoint" />
            <mxPoint x="950" y="450" as="targetPoint" />
          </mxGeometry>
        </mxCell>
        <mxCell id="WePivm-psWIMAxNcnYN1-64" value="" style="endArrow=none;html=1;fontSize=18;strokeColor=#0D0606;strokeWidth=2;startArrow=none;" parent="1" source="WePivm-psWIMAxNcnYN1-65" edge="1">
          <mxGeometry width="50" height="50" relative="1" as="geometry">
            <mxPoint x="1042" y="496" as="sourcePoint" />
            <mxPoint x="1360" y="600" as="targetPoint" />
          </mxGeometry>
        </mxCell>
        <mxCell id="WePivm-psWIMAxNcnYN1-67" value="" style="verticalLabelPosition=bottom;aspect=fixed;html=1;verticalAlign=top;strokeColor=none;align=center;outlineConnect=0;shape=mxgraph.citrix.netscaler_vpx;fontSize=18;" parent="1" vertex="1">
          <mxGeometry x="1092.0000000000002" y="270" width="107.78" height="40" as="geometry" />
        </mxCell>
        <mxCell id="WePivm-psWIMAxNcnYN1-68" value="" style="endArrow=none;html=1;fontSize=18;strokeColor=#0D0606;strokeWidth=2;exitX=0.875;exitY=0.5;exitDx=0;exitDy=0;exitPerimeter=0;" parent="1" source="WePivm-psWIMAxNcnYN1-12" target="WePivm-psWIMAxNcnYN1-67" edge="1">
          <mxGeometry width="50" height="50" relative="1" as="geometry">
            <mxPoint x="917" y="389.9999999999998" as="sourcePoint" />
            <mxPoint x="1299.9999999999995" y="220" as="targetPoint" />
          </mxGeometry>
        </mxCell>
        <mxCell id="WePivm-psWIMAxNcnYN1-65" value="" style="verticalLabelPosition=bottom;aspect=fixed;html=1;verticalAlign=top;strokeColor=none;align=center;outlineConnect=0;shape=mxgraph.citrix.netscaler_vpx;fontSize=18;" parent="1" vertex="1">
          <mxGeometry x="1098.2200000000003" y="510" width="107.78" height="40" as="geometry" />
        </mxCell>
        <mxCell id="WePivm-psWIMAxNcnYN1-69" value="" style="endArrow=none;html=1;fontSize=18;strokeColor=#0D0606;strokeWidth=2;" parent="1" target="WePivm-psWIMAxNcnYN1-65" edge="1">
          <mxGeometry width="50" height="50" relative="1" as="geometry">
            <mxPoint x="1042" y="496" as="sourcePoint" />
            <mxPoint x="1359.9999999999995" y="599.9999999999998" as="targetPoint" />
          </mxGeometry>
        </mxCell>
        <mxCell id="WePivm-psWIMAxNcnYN1-70" value="" style="verticalLabelPosition=bottom;aspect=fixed;html=1;verticalAlign=top;strokeColor=none;align=center;outlineConnect=0;shape=mxgraph.citrix.netscaler_vpx;fontSize=18;" parent="1" vertex="1">
          <mxGeometry x="1092.0000000000002" y="380" width="107.78" height="40" as="geometry" />
        </mxCell>
        <mxCell id="WePivm-psWIMAxNcnYN1-71" value="" style="endArrow=none;html=1;fontSize=18;strokeColor=#0D0606;strokeWidth=2;exitX=0.949;exitY=0.615;exitDx=0;exitDy=0;exitPerimeter=0;" parent="1" source="WePivm-psWIMAxNcnYN1-12" edge="1">
          <mxGeometry width="50" height="50" relative="1" as="geometry">
            <mxPoint x="937.7200000000003" y="412.9999999999998" as="sourcePoint" />
            <mxPoint x="1090" y="403" as="targetPoint" />
          </mxGeometry>
        </mxCell>
        <mxCell id="WePivm-psWIMAxNcnYN1-72" value="DVS" style="text;html=1;strokeColor=none;fillColor=none;align=center;verticalAlign=middle;whiteSpace=wrap;rounded=0;fontSize=18;" parent="1" vertex="1">
          <mxGeometry x="1132.1100000000001" y="320" width="40" height="20" as="geometry" />
        </mxCell>
        <mxCell id="WePivm-psWIMAxNcnYN1-73" value="DVS" style="text;html=1;strokeColor=none;fillColor=none;align=center;verticalAlign=middle;whiteSpace=wrap;rounded=0;fontSize=18;" parent="1" vertex="1">
          <mxGeometry x="1125.8899999999999" y="430" width="40" height="20" as="geometry" />
        </mxCell>
        <mxCell id="WePivm-psWIMAxNcnYN1-74" value="DVS" style="text;html=1;strokeColor=none;fillColor=none;align=center;verticalAlign=middle;whiteSpace=wrap;rounded=0;fontSize=18;" parent="1" vertex="1">
          <mxGeometry x="1132.1100000000001" y="564" width="40" height="20" as="geometry" />
        </mxCell>
        <mxCell id="WePivm-psWIMAxNcnYN1-75" value="路由器" style="text;html=1;strokeColor=none;fillColor=none;align=center;verticalAlign=middle;whiteSpace=wrap;rounded=0;fontSize=18;" parent="1" vertex="1">
          <mxGeometry x="976.25" y="510" width="62.5" height="20" as="geometry" />
        </mxCell>
        <mxCell id="kTQyQFTcCckBxmz1LH-c-1" value="移动端" style="text;html=1;strokeColor=none;fillColor=none;align=center;verticalAlign=middle;whiteSpace=wrap;rounded=0;fontSize=18;" vertex="1" parent="1">
          <mxGeometry x="1385" y="700" width="60" height="20" as="geometry" />
        </mxCell>
      </root>
    </mxGraphModel>
  </diagram>
</mxfile>
